<svg width="26" height="26" viewBox="0 0 26 26" fill="none" xmlns="http://www.w3.org/2000/svg">
<path d="M26 13.8002H13.3496L4.40429 22.7456C6.23037 24.3566 8.47191 25.4229 10.874 25.8231C13.276 26.2233 15.7422 25.9414 17.9919 25.0094C20.2417 24.0774 22.1848 22.5328 23.6002 20.5512C25.0156 18.5697 25.8465 16.2307 25.9984 13.8002H26ZM3.25441 21.5941C1.64337 19.768 0.577119 17.5265 0.176918 15.1244C-0.223283 12.7224 0.0586311 10.2562 0.990597 8.00645C1.92256 5.75668 3.46717 3.81361 5.44875 2.39821C7.43033 0.982812 9.76934 0.151908 12.1998 0V12.6504L3.25441 21.5957V21.5941ZM13.8262 0V12.1738H26C25.8018 9.01006 24.4555 6.02746 22.214 3.78596C19.9725 1.54447 16.9899 0.198232 13.8262 0Z" fill="#A0B1C7"/>
</svg>
