<svg width="26" height="24" viewBox="0 0 26 24" fill="none" xmlns="http://www.w3.org/2000/svg">
<path d="M26 2.09259C26 0.936886 24.9653 0 23.6889 0H2.31111C1.03472 0 0 0.936886 0 2.09259V21.4491C0 22.6048 1.03472 23.5417 2.31111 23.5417H23.6889C24.9653 23.5417 26 22.6048 26 21.4491V2.09259Z" fill="#A0B1C7"/>
<path d="M11.3427 14.1179V13.541C11.3427 13.0421 11.4613 12.6082 11.6985 12.2392C11.9356 11.8702 12.3695 11.4779 13 11.0621C13.6074 10.6724 14.0065 10.3554 14.1974 10.1111C14.3941 9.86686 14.4924 9.59403 14.4924 9.29261C14.4924 8.95482 14.3536 8.69757 14.0759 8.52088C13.7983 8.34419 13.4107 8.25584 12.9132 8.25584C12.0456 8.25584 11.0564 8.51049 9.94577 9.01978L9 7.31262C10.2899 6.66301 11.658 6.33821 13.1041 6.33821C14.2957 6.33821 15.2415 6.59545 15.9414 7.10994C16.6471 7.62443 17 8.31041 17 9.16789C17 9.73954 16.8554 10.2332 16.5662 10.649C16.2769 11.0647 15.7274 11.5324 14.9176 12.0521C14.3623 12.4211 14.0094 12.7017 13.859 12.894C13.7144 13.0863 13.6421 13.3383 13.6421 13.6502V14.1179H11.3427ZM11.0651 16.7839C11.0651 16.3473 11.1952 16.0173 11.4555 15.7939C11.7158 15.5704 12.0947 15.4587 12.5922 15.4587C13.0723 15.4587 13.4425 15.573 13.7028 15.8016C13.9689 16.0303 14.102 16.3577 14.102 16.7839C14.102 17.1944 13.9689 17.5192 13.7028 17.7583C13.4367 17.9921 13.0665 18.109 12.5922 18.109C12.1063 18.109 11.7303 17.9947 11.4642 17.7661C11.1981 17.5322 11.0651 17.2048 11.0651 16.7839Z" fill="white"/>
</svg>
