<svg width="26" height="25" viewBox="0 0 26 25" fill="none" xmlns="http://www.w3.org/2000/svg">
<rect width="26" height="23.5417" rx="4" transform="matrix(-1 0 0 1 26 0.839752)" fill="#A0B1C7"/>
<path d="M12.6058 8.98544V11.3522C12.6058 11.8502 12.1594 12.2538 11.61 12.2538H8.99576C8.44636 12.2538 8 11.8502 8 11.3522V8.98544C8 8.48744 8.44636 8.08356 8.99576 8.08356H11.61C12.1603 8.08356 12.6058 8.48744 12.6058 8.98544ZM17.0042 8.08356H14.39C13.8406 8.08356 13.3942 8.48744 13.3942 8.98544V11.3522C13.3942 11.8502 13.8406 12.2538 14.39 12.2538H17.0042C17.5536 12.2538 18 11.8502 18 11.3522V8.98544C18 8.48744 17.5536 8.08356 17.0042 8.08356ZM11.61 12.9678H8.99576C8.44636 12.9678 8 13.3711 8 13.8694V16.2364C8 16.7339 8.44636 17.138 8.99576 17.138H11.61C12.1594 17.138 12.6058 16.7339 12.6058 16.2364V13.8694C12.6058 13.3711 12.1603 12.9678 11.61 12.9678ZM17.0042 12.9678H14.39C13.8406 12.9678 13.3942 13.3714 13.3942 13.8694V16.2364C13.3942 16.7339 13.8406 17.138 14.39 17.138H17.0042C17.5536 17.138 18 16.7339 18 16.2364V13.8694C18 13.3711 17.5536 12.9678 17.0042 12.9678Z" fill="white"/>
</svg>
