<svg width="26" height="26" viewBox="0 0 26 26" fill="none" xmlns="http://www.w3.org/2000/svg">
<path d="M15.2831 1.81039C14.612 -0.420195 11.388 -0.420195 10.7169 1.81039L10.5544 2.3521C10.4541 2.68605 10.2789 2.99375 10.0415 3.25264C9.80416 3.51154 9.51072 3.71506 9.1827 3.84829C8.85469 3.98152 8.50042 4.04107 8.14587 4.02258C7.79133 4.0041 7.4455 3.90803 7.13375 3.74144L6.63 3.47058C4.54513 2.35848 2.26525 4.59384 3.40112 6.63642L3.67575 7.13193C4.4005 8.43842 3.71312 10.0652 2.25875 10.4858L1.70625 10.6451C-0.56875 11.3031 -0.56875 14.4642 1.70625 15.1222L2.25875 15.2815C2.59934 15.3799 2.91317 15.5517 3.17722 15.7844C3.44127 16.0171 3.64885 16.3048 3.78473 16.6264C3.92061 16.948 3.98135 17.2954 3.96249 17.643C3.94363 17.9906 3.84566 18.3297 3.67575 18.6354L3.3995 19.1293C2.26525 21.1735 4.54513 23.4088 6.62838 22.2951L7.13375 22.0259C7.4455 21.8593 7.79133 21.7632 8.14587 21.7447C8.50042 21.7262 8.85469 21.7858 9.1827 21.919C9.51072 22.0522 9.80416 22.2558 10.0415 22.5147C10.2789 22.7736 10.4541 23.0813 10.5544 23.4152L10.7169 23.9569C11.388 26.1875 14.612 26.1875 15.2831 23.9569L15.4456 23.4152C15.5459 23.0813 15.7211 22.7736 15.9585 22.5147C16.1958 22.2558 16.4893 22.0522 16.8173 21.919C17.1453 21.7858 17.4996 21.7262 17.8541 21.7447C18.2087 21.7632 18.5545 21.8593 18.8662 22.0259L19.37 22.2967C21.4549 23.4088 23.7348 21.1735 22.5989 19.1309L22.3242 18.6354C22.1543 18.3297 22.0564 17.9906 22.0375 17.643C22.0187 17.2954 22.0794 16.948 22.2153 16.6264C22.3512 16.3048 22.5587 16.0171 22.8228 15.7844C23.0868 15.5517 23.4007 15.3799 23.7412 15.2815L24.2937 15.1222C26.5687 14.4642 26.5687 11.3031 24.2937 10.6451L23.7412 10.4858C23.4007 10.3875 23.0868 10.2156 22.8228 9.98293C22.5587 9.75021 22.3512 9.4625 22.2153 9.14089C22.0794 8.81927 22.0187 8.47192 22.0375 8.1243C22.0564 7.77667 22.1543 7.4376 22.3242 7.13193L22.6005 6.63802C23.7348 4.59384 21.4549 2.35848 19.3716 3.47218L18.8662 3.74144C18.5545 3.90803 18.2087 4.0041 17.8541 4.02258C17.4996 4.04107 17.1453 3.98152 16.8173 3.84829C16.4893 3.71506 16.1958 3.51154 15.9585 3.25264C15.7211 2.99375 15.5459 2.68605 15.4456 2.3521L15.2831 1.81039ZM13 17.552C11.7372 17.552 10.5262 17.0601 9.63329 16.1846C8.74038 15.3092 8.23875 14.1218 8.23875 12.8837C8.23875 11.6455 8.74038 10.4581 9.63329 9.58267C10.5262 8.7072 11.7372 8.21536 13 8.21536C14.2623 8.21536 15.473 8.70703 16.3656 9.58221C17.2582 10.4574 17.7596 11.6444 17.7596 12.8821C17.7596 14.1198 17.2582 15.3067 16.3656 16.1819C15.473 17.0571 14.2623 17.5488 13 17.5488V17.552Z" fill="#A0B1C7"/>
</svg>
