<svg width="361" height="80" viewBox="0 0 361 80" fill="none" xmlns="http://www.w3.org/2000/svg">
<path d="M8.31462 0.830841C3.99832 0.830841 0.466797 4.52316 0.466797 9.03529L0.466797 71.7109C0.466797 76.2244 3.99832 79.916 8.31462 79.916L123.428 79.916C127.745 79.916 131.276 76.2244 131.276 71.7109V9.03529C131.276 4.52316 127.745 0.830841 123.428 0.830841L8.31462 0.830841Z" fill="url(#paint0_linear)"/>
<path d="M296.405 14.5597C297.074 14.557 297.62 14.0082 297.658 13.3192L297.66 13.2359L297.638 8.42289C297.634 7.69537 297.067 7.10801 296.372 7.11139C295.702 7.11472 295.157 7.66294 295.119 8.35188L295.117 8.4352L295.138 13.2489C295.141 13.7822 295.447 14.2403 295.884 14.4455C296.043 14.52 296.22 14.561 296.405 14.5597ZM289.023 17.2586C289.488 17.476 290.053 17.3851 290.433 16.9851C290.902 16.4913 290.921 15.7066 290.49 15.1899L290.428 15.1211L287.163 11.7283C286.67 11.2148 285.872 11.2176 285.381 11.7338C284.911 12.2276 284.893 13.0129 285.324 13.5291L285.386 13.5977L288.651 16.9905C288.762 17.1061 288.889 17.195 289.023 17.2586ZM302.642 17.5146C303.08 17.7199 303.608 17.6502 303.986 17.3056L304.055 17.2377L307.288 13.8128C307.778 13.2945 307.772 12.4603 307.277 11.9488C306.803 11.4596 306.052 11.4434 305.56 11.8958L305.494 11.9605L302.261 15.3861C301.772 15.9044 301.777 16.7386 302.272 17.2493C302.361 17.3407 302.459 17.4154 302.563 17.4739L302.642 17.5146ZM148.639 65.8805V37.2022L165.545 61.6932H165.681L182.995 35.9947V65.8805H190.87V12.3557H190.734L165.681 48.8439L141.035 12.3557H140.967V65.8805H148.639ZM299.464 66.2487V49.3742C299.489 49.306 299.507 49.2336 299.514 49.1572L299.518 49.0795L299.484 37.8357L305.281 39.219C305.597 39.2894 305.926 39.1698 306.128 38.9099C306.318 38.6655 306.368 38.3383 306.267 38.0474L306.235 37.9691L296.986 17.3981C296.844 17.0822 296.535 16.8785 296.206 16.8848C295.902 16.8848 295.621 17.0589 295.474 17.34L295.44 17.4125L286.56 38.0395C286.426 38.3479 286.472 38.713 286.682 38.9728C286.873 39.2133 287.174 39.3332 287.468 39.284L287.541 39.2682L293.056 37.8706L293.062 41.1499H293.049V66.2487H299.464ZM281.979 24.4351L286.582 24.4289C287.278 24.4282 287.842 23.8374 287.841 23.1099C287.84 22.4097 287.317 21.8385 286.658 21.7962L286.578 21.7937L281.976 21.7998C281.28 21.8005 280.715 22.3913 280.717 23.1195C280.717 23.6549 281.023 24.1151 281.462 24.3209C281.588 24.3799 281.726 24.418 281.87 24.4305L281.979 24.4351ZM305.883 24.792L310.485 24.7523C311.181 24.7469 311.741 24.152 311.735 23.4238C311.73 22.7249 311.204 22.1569 310.545 22.1191L310.465 22.1171L305.861 22.1561C305.166 22.1622 304.606 22.7571 304.611 23.4846C304.616 24.0173 304.921 24.4727 305.357 24.6771C305.485 24.7373 305.625 24.7756 305.772 24.7878L305.883 24.792ZM249.465 65.881V42.1005H256.933V35.853H249.465V22.6489H241.86V35.853H236.903V42.1005H241.86V65.881H249.465ZM216.603 66.6611C218.233 66.6611 219.931 66.3657 221.695 65.7743C223.334 65.2251 224.876 64.5019 226.321 63.606L226.652 63.3961L223.188 57.5042C221.017 59.0659 218.866 59.8461 216.739 59.8461C215.2 59.8461 213.796 59.5165 212.53 58.8526C211.333 58.2281 210.357 57.3493 209.606 56.2156L209.475 56.0129L231.607 48.205C230.748 43.8508 229.028 40.4792 226.448 38.0895C223.868 35.6997 220.632 34.5038 216.739 34.5038C213.796 34.5038 211.081 35.2266 208.591 36.6693C206.102 38.1134 204.133 40.0656 202.685 42.5257C201.236 44.9873 200.513 47.684 200.513 50.618C200.513 53.7421 201.157 56.5107 202.448 58.9237C203.737 61.3373 205.593 63.2307 208.014 64.603C210.435 65.9753 213.299 66.6611 216.603 66.6611ZM272.005 65.8806V52.9609C272.005 51.0683 272.457 49.2816 273.363 47.6009C274.268 45.9223 275.536 44.5972 277.165 43.6256C278.732 42.6946 280.507 42.2972 282.493 42.4358L282.733 42.455L283.072 34.5042C282.076 34.5042 280.842 34.8474 279.372 35.5332C277.901 36.2204 276.463 37.2023 275.06 38.4796C273.735 39.6859 272.692 41.041 271.932 42.5432L271.801 42.8098L271.258 35.8526H264.4V65.8806H272.005ZM349.135 66.5202C352.891 66.5202 355.777 65.5383 357.791 63.5739C359.806 61.6108 360.812 59.1615 360.812 56.2268C360.812 54.0504 360.178 52.287 358.912 50.9386C357.644 49.5889 355.879 48.5359 353.616 47.779L353.57 47.7605L353.395 47.695L353.246 47.643L352.873 47.5189L352.122 47.2819L351.661 47.1223C351.586 47.0959 351.512 47.0695 351.439 47.0431L351.012 46.886C349.764 46.4168 348.822 45.969 348.184 45.5431C347.404 45.0231 347.019 44.2529 347.027 43.2349L347.03 43.0945C347.03 42.1947 347.414 41.461 348.184 40.8928C348.954 40.3253 349.926 40.0416 351.103 40.0416C352.054 40.0416 353.107 40.2781 354.26 40.7506C355.332 41.1906 356.258 41.7733 357.037 42.4975L357.214 42.6672L360.134 37.9116C358.731 36.7752 357.225 35.9479 355.62 35.4268C354.012 34.9065 352.122 34.6467 349.95 34.6467C347.641 34.6467 345.683 35.0966 344.076 35.9951C342.469 36.8942 341.269 38.0662 340.478 39.5089C339.686 40.953 339.29 42.5024 339.29 44.1585C339.29 46.2412 339.9 48.0511 341.124 49.5889C342.346 51.1274 344.201 52.2993 346.691 53.1027L348.071 53.5356L348.829 53.7776C349.938 54.1325 350.944 54.5933 351.851 55.1622C352.756 55.7298 353.209 56.5817 353.209 57.7174C353.209 58.8067 352.768 59.6231 351.885 60.1667C351.002 60.7116 349.882 60.9824 348.524 60.9824C346.097 60.9824 343.715 59.8152 341.375 57.4784L341.191 57.2915L337.999 61.7633C339.266 63.2785 340.885 64.4504 342.854 65.2771C344.824 66.1045 346.916 66.5202 349.135 66.5202ZM322.519 66.6614C324.375 66.6614 326.219 66.3421 328.052 65.7027C329.784 65.1002 331.263 64.2965 332.49 63.292L332.703 63.1127L328.901 58.1431C327.361 59.4682 325.461 60.1315 323.198 60.1315C320.572 60.1315 318.412 59.2439 316.713 57.4689C315.016 55.6939 314.168 53.4819 314.168 50.8316C314.168 48.1814 314.971 45.9694 316.579 44.1937C318.184 42.4193 320.142 41.5325 322.452 41.5325C323.763 41.5325 324.997 41.78 326.152 42.2771C327.21 42.7328 328.143 43.2781 328.955 43.913L329.173 44.0884L332.974 38.9055C330.032 36.3496 326.298 35.0723 321.771 35.0723C319.101 35.0723 316.6 35.7116 314.27 36.9889C311.937 38.2662 310.07 40.1014 308.667 42.4904C307.264 44.8809 306.564 47.661 306.564 50.8316C306.564 54.0501 307.219 56.8549 308.532 59.2439C309.845 61.6337 311.712 63.4668 314.134 64.7448C316.555 66.0227 319.35 66.6614 322.519 66.6614ZM208.048 51.3996C208.003 51.1151 207.98 50.7138 207.98 50.192C207.98 47.4009 208.738 45.1288 210.256 43.3777C211.772 41.6279 213.728 40.7507 216.128 40.7507C217.938 40.7507 219.409 41.2245 220.541 42.1702C221.609 43.0659 222.436 44.1915 223.021 45.5493L223.122 45.7914L208.048 51.3996Z" fill="#1B83F4"/>
<path fill-rule="evenodd" clip-rule="evenodd" d="M100.417 66.5558V55.6232L103.744 52.9264L111.823 66.5558H120.65L108.973 48.5962L119.428 40.0772L114.811 35.818L100.417 47.3893V11.1856L92.8126 11.1856V66.5558H100.417ZM64.2967 66.5562V11.1859H56.6928L56.6928 66.5562H64.2967ZM19.4866 66.5559V46.253L22.9488 42.7043L39.855 66.5559H49.9034L28.7195 37.4509L49.1566 14.8773L38.9727 14.8773L20.3688 35.6759L19.2825 37.3094L19.4866 34.6824L19.4866 14.8773H11.4746L11.4746 66.5559H19.4866ZM78.8263 29.9975C79.9132 29.9975 80.8968 29.5962 81.7804 28.7907C82.6626 27.9866 83.104 26.9924 83.104 25.8088C83.104 24.6266 82.6626 23.6208 81.7804 22.7914C80.8968 21.9647 79.9132 21.5497 78.8263 21.5497C77.6943 21.5497 76.676 21.9647 75.7709 22.7914C74.8651 23.6208 74.4132 24.6266 74.4132 25.8088C74.4132 26.9924 74.8651 27.9866 75.7709 28.7907C76.676 29.5962 77.6943 29.9975 78.8263 29.9975ZM82.3572 66.5562V36.5281H74.7533V66.5562H82.3572Z" fill="white"/>
<defs>
<linearGradient id="paint0_linear" x1="0.46698" y1="40.3733" x2="131.276" y2="40.3733" gradientUnits="userSpaceOnUse">
<stop stop-color="#114FEE"/>
<stop offset="0.00413285" stop-color="#114FEE"/>
<stop offset="1" stop-color="#2DDAFF"/>
</linearGradient>
</defs>
</svg>
