<svg width="162" height="36" viewBox="0 0 162 36" fill="none" xmlns="http://www.w3.org/2000/svg">
<path d="M3.73097 0.373837C1.79401 0.373837 0.209229 2.03538 0.209229 4.06584L0.209229 32.2698C0.209229 34.3009 1.79401 35.9622 3.73097 35.9622L55.3887 35.9622C57.3257 35.9622 58.9104 34.3009 58.9104 32.2698L58.9104 4.06584C58.9104 2.03538 57.3257 0.373837 55.3887 0.373837L3.73097 0.373837Z" fill="url(#paint0_linear)"/>
<path d="M133.012 6.55188C133.313 6.55065 133.558 6.30368 133.575 5.99364L133.576 5.95614L133.566 3.79029C133.564 3.46291 133.31 3.1986 132.997 3.20012C132.697 3.20162 132.452 3.44832 132.435 3.75834L132.434 3.79583L132.444 5.96199C132.445 6.20199 132.582 6.40814 132.779 6.50045C132.85 6.53399 132.929 6.55245 133.012 6.55188ZM129.7 7.76636C129.909 7.8642 130.162 7.82328 130.333 7.64328C130.543 7.42107 130.551 7.06796 130.358 6.83545L130.33 6.80451L128.865 5.27774C128.644 5.04667 128.286 5.0479 128.065 5.2802C127.855 5.50241 127.847 5.85581 128.04 6.08808L128.068 6.11897L129.533 7.64574C129.583 7.69774 129.639 7.73774 129.7 7.76636ZM135.811 7.88159C136.008 7.97397 136.245 7.94261 136.414 7.7875L136.445 7.75697L137.896 6.21574C138.116 5.98251 138.114 5.60712 137.891 5.37697C137.679 5.15682 137.342 5.14951 137.121 5.35313L137.091 5.3822L135.64 6.92374C135.421 7.15697 135.423 7.53236 135.646 7.7622C135.685 7.80331 135.729 7.83694 135.776 7.86324L135.811 7.88159ZM66.7018 29.6462V16.741L74.2885 27.7619H74.3496L82.1191 16.1976V29.6462H85.6535V5.56008H85.5924L74.3496 21.9798L63.2896 5.56008H63.259V29.6462H66.7018ZM134.385 29.8119V22.2184C134.396 22.1877 134.404 22.1551 134.408 22.1207L134.409 22.0858L134.394 17.0261L136.996 17.6485C137.137 17.6802 137.285 17.6264 137.376 17.5095C137.461 17.3995 137.484 17.2522 137.438 17.1213L137.424 17.0861L133.273 7.82916C133.21 7.687 133.071 7.59531 132.923 7.59817C132.787 7.59817 132.661 7.6765 132.595 7.80301L132.58 7.83562L128.594 17.1178C128.534 17.2565 128.555 17.4209 128.649 17.5378C128.735 17.646 128.87 17.6999 129.002 17.6778L129.035 17.6707L131.51 17.0418L131.512 18.5175H131.506V29.8119L134.385 29.8119ZM126.539 10.9958L128.604 10.993C128.917 10.9927 129.17 10.7268 129.169 10.3995C129.169 10.0844 128.934 9.82732 128.638 9.80829L128.603 9.80716L126.537 9.80993C126.225 9.81023 125.972 10.0761 125.972 10.4038C125.973 10.6447 126.11 10.8518 126.307 10.9444C126.363 10.971 126.425 10.9881 126.49 10.9937L126.539 10.9958ZM137.266 11.1564L139.331 11.1385C139.643 11.1361 139.895 10.8684 139.892 10.5407C139.89 10.2262 139.654 9.97059 139.358 9.95358L139.322 9.9527L137.256 9.97023C136.944 9.973 136.693 10.2407 136.695 10.5681C136.697 10.8078 136.834 11.0127 137.03 11.1047C137.087 11.1318 137.15 11.149 137.216 11.1545L137.266 11.1564ZM111.948 29.6465V18.9452H115.299V16.1338H111.948V10.192H108.535V16.1338H106.311V18.9452H108.535V29.6465H111.948ZM97.2011 29.9975C97.9325 29.9975 98.6944 29.8646 99.4862 29.5984C100.222 29.3513 100.914 29.0259 101.562 28.6227L101.711 28.5283L100.156 25.8769C99.1818 26.5796 98.2166 26.9307 97.2622 26.9307C96.5716 26.9307 95.9415 26.7824 95.3734 26.4836C94.8359 26.2026 94.3982 25.8072 94.061 25.297L94.0025 25.2058L103.934 21.6923C103.549 19.7329 102.777 18.2157 101.619 17.1403C100.461 16.0649 99.009 15.5267 97.2622 15.5267C95.9415 15.5267 94.723 15.852 93.6057 16.5012C92.4885 17.151 91.6051 18.0295 90.9553 19.1366C90.305 20.2443 89.9804 21.4578 89.9804 22.7781C89.9804 24.184 90.2695 25.4298 90.8488 26.5157C91.4273 27.6018 92.2601 28.4538 93.3469 29.0713C94.4331 29.6889 95.7182 29.9975 97.2011 29.9975ZM122.063 29.6463V23.8324C122.063 22.9807 122.266 22.1767 122.672 21.4204C123.078 20.665 123.647 20.0687 124.379 19.6315C125.082 19.2126 125.878 19.0337 126.77 19.0961L126.877 19.1047L127.029 15.5269C126.582 15.5269 126.029 15.6813 125.369 15.99C124.709 16.2992 124.063 16.741 123.434 17.3158C122.839 17.8586 122.371 18.4684 122.03 19.1444L121.972 19.2644L121.728 16.1337H118.65V29.6463H122.063ZM156.675 29.9341C158.361 29.9341 159.656 29.4922 160.56 28.6082C161.464 27.7249 161.915 26.6227 161.915 25.3021C161.915 24.3227 161.631 23.5292 161.063 22.9224C160.494 22.315 159.701 21.8412 158.686 21.5005L158.665 21.4922L158.587 21.4627L158.52 21.4393L158.353 21.3835L158.016 21.2768L157.809 21.205C157.775 21.1931 157.742 21.1813 157.709 21.1694L157.517 21.0987C156.958 20.8875 156.535 20.6861 156.248 20.4944C155.899 20.2604 155.725 19.9138 155.729 19.4557L155.731 19.3925C155.731 18.9876 155.903 18.6575 156.248 18.4018C156.594 18.1464 157.03 18.0187 157.558 18.0187C157.985 18.0187 158.458 18.1252 158.975 18.3378C159.456 18.5358 159.872 18.798 160.221 19.1239L160.301 19.2002L161.611 17.0602C160.981 16.5489 160.306 16.1765 159.585 15.9421C158.864 15.7079 158.016 15.591 157.041 15.591C156.005 15.591 155.126 15.7935 154.405 16.1978C153.684 16.6024 153.145 17.1298 152.79 17.779C152.435 18.4289 152.257 19.1261 152.257 19.8713C152.257 20.8085 152.531 21.623 153.08 22.315C153.628 23.0073 154.461 23.5347 155.578 23.8962L156.198 24.091L156.538 24.1999C157.036 24.3596 157.487 24.567 157.894 24.823C158.3 25.0784 158.503 25.4618 158.503 25.9728C158.503 26.463 158.305 26.8304 157.909 27.075C157.513 27.3202 157.01 27.4421 156.401 27.4421C155.312 27.4421 154.243 26.9169 153.193 25.8653L153.11 25.7812L151.678 27.7935C152.246 28.4753 152.973 29.0027 153.857 29.3747C154.74 29.747 155.68 29.9341 156.675 29.9341ZM144.731 29.9976C145.564 29.9976 146.392 29.8539 147.214 29.5662C147.991 29.2951 148.655 28.9334 149.206 28.4814L149.301 28.4007L147.595 26.1644C146.904 26.7607 146.051 27.0592 145.036 27.0592C143.857 27.0592 142.888 26.6598 142.126 25.861C141.364 25.0622 140.984 24.0669 140.984 22.8742C140.984 21.6816 141.344 20.6862 142.065 19.8872C142.786 19.0887 143.665 18.6896 144.701 18.6896C145.289 18.6896 145.843 18.801 146.361 19.0247C146.836 19.2297 147.255 19.4751 147.619 19.7609L147.717 19.8398L149.423 17.5075C148.103 16.3573 146.427 15.7825 144.396 15.7825C143.197 15.7825 142.075 16.0702 141.029 16.645C139.983 17.2198 139.145 18.0456 138.515 19.1207C137.885 20.1964 137.571 21.4475 137.571 22.8742C137.571 24.3225 137.865 25.5847 138.455 26.6598C139.044 27.7352 139.881 28.5601 140.968 29.1352C142.055 29.7102 143.309 29.9976 144.731 29.9976ZM93.3622 23.1298C93.3419 23.0018 93.3316 22.8212 93.3316 22.5864C93.3316 21.3304 93.6718 20.308 94.3526 19.52C95.0329 18.7326 95.911 18.3378 96.9878 18.3378C97.8001 18.3378 98.4605 18.551 98.9682 18.9766C99.4477 19.3796 99.8188 19.8862 100.081 20.4972L100.127 20.6061L93.3622 23.1298Z" fill="#1B83F4"/>
<path fill-rule="evenodd" clip-rule="evenodd" d="M45.062 29.9501V25.0304L46.5549 23.8169L50.1805 29.9501H54.1416L48.9013 21.8683L53.5931 18.0347L51.5214 16.1181L45.062 21.3252V5.03352H41.6494V29.9501H45.062ZM28.8528 29.9503L28.8528 5.03367H25.4405L25.4405 29.9503H28.8528ZM8.74408 29.9502V20.8139L10.2978 19.2169L17.8845 29.9502L22.3937 29.9502L12.8874 16.8529L22.0586 6.69478L17.4886 6.69478L9.13998 16.0542L8.65252 16.7892L8.74408 15.6071L8.74408 6.69478H5.14868L5.14868 29.9502H8.74408ZM35.373 13.4989C35.8608 13.4989 36.3021 13.3183 36.6986 12.9558C37.0945 12.594 37.2926 12.1466 37.2926 11.614C37.2926 11.082 37.0945 10.6294 36.6986 10.2561C36.3021 9.88414 35.8608 9.69737 35.373 9.69737C34.865 9.69737 34.408 9.88414 34.0019 10.2561C33.5954 10.6294 33.3926 11.082 33.3926 11.614C33.3926 12.1466 33.5954 12.594 34.0019 12.9558C34.408 13.3183 34.865 13.4989 35.373 13.4989ZM36.9575 29.9503V16.4377H33.5452V29.9503H36.9575Z" fill="white"/>
<defs>
<linearGradient id="paint0_linear" x1="0.209311" y1="18.1679" x2="58.9105" y2="18.1679" gradientUnits="userSpaceOnUse">
<stop stop-color="#114FEE"/>
<stop offset="0.00413285" stop-color="#114FEE"/>
<stop offset="1" stop-color="#2DDAFF"/>
</linearGradient>
</defs>
</svg>
