<svg width="38" height="38" viewBox="0 0 38 38" fill="none" xmlns="http://www.w3.org/2000/svg">
<rect width="38" height="38" rx="7" fill="#F4F7F9"/>
<path d="M27.5008 14.7436C27.2963 13.9839 26.6974 13.3851 25.9379 13.1806C24.5501 12.8008 18.9993 12.8008 18.9993 12.8008C18.9993 12.8008 13.4486 12.8008 12.0609 13.1661C11.316 13.3705 10.7024 13.9841 10.498 14.7436C10.1328 16.1312 10.1328 19.0089 10.1328 19.0089C10.1328 19.0089 10.1328 21.9011 10.498 23.2742C10.7025 24.0337 11.3013 24.6326 12.061 24.8372C13.4632 25.217 18.9994 25.217 18.9994 25.217C18.9994 25.217 24.5501 25.217 25.9379 24.8517C26.6975 24.6473 27.2963 24.0483 27.5009 23.2888C27.8661 21.9011 27.8661 19.0235 27.8661 19.0235C27.8661 19.0235 27.8807 16.1312 27.5008 14.7436Z" fill="#FF0000"/>
<path d="M17.2324 21.6657L21.8483 19.0072L17.2324 16.3486V21.6657Z" fill="white"/>
</svg>
